<svg width="32" height="32" viewBox="0 0 32 32" fill="none" xmlns="http://www.w3.org/2000/svg">
<rect width="32" height="32" rx="4" fill="#FFB72B"/>
<path d="M20.281 16.2189C20.3508 16.2885 20.4062 16.3713 20.444 16.4624C20.4818 16.5535 20.5013 16.6512 20.5013 16.7499C20.5013 16.8485 20.4818 16.9462 20.444 17.0373C20.4062 17.1284 20.3508 17.2112 20.281 17.2809L15.781 21.7809C15.7113 21.8507 15.6285 21.9061 15.5374 21.9439C15.4463 21.9818 15.3486 22.0012 15.25 22.0012C15.1513 22.0012 15.0536 21.9818 14.9625 21.9439C14.8714 21.9061 14.7886 21.8507 14.719 21.7809L12.469 19.5309C12.3992 19.4611 12.3439 19.3784 12.3062 19.2873C12.2684 19.1961 12.249 19.0985 12.249 18.9999C12.249 18.9013 12.2684 18.8036 12.3062 18.7125C12.3439 18.6214 12.3992 18.5386 12.469 18.4689C12.6098 18.328 12.8008 18.2489 13 18.2489C13.0986 18.2489 13.1962 18.2684 13.2873 18.3061C13.3785 18.3438 13.4612 18.3991 13.531 18.4689L15.25 20.1894L19.219 16.2189C19.2886 16.149 19.3714 16.0936 19.4625 16.0558C19.5536 16.018 19.6513 15.9985 19.75 15.9985C19.8486 15.9985 19.9463 16.018 20.0374 16.0558C20.1285 16.0936 20.2113 16.149 20.281 16.2189V16.2189Z" fill="white"/>
<path d="M9.25 4C9.44891 4 9.63968 4.07902 9.78033 4.21967C9.92098 4.36032 10 4.55109 10 4.75V5.5H22V4.75C22 4.55109 22.079 4.36032 22.2197 4.21967C22.3603 4.07902 22.5511 4 22.75 4C22.9489 4 23.1397 4.07902 23.2803 4.21967C23.421 4.36032 23.5 4.55109 23.5 4.75V5.5H25C25.7956 5.5 26.5587 5.81607 27.1213 6.37868C27.6839 6.94129 28 7.70435 28 8.5V25C28 25.7956 27.6839 26.5587 27.1213 27.1213C26.5587 27.6839 25.7956 28 25 28H7C6.20435 28 5.44129 27.6839 4.87868 27.1213C4.31607 26.5587 4 25.7956 4 25V8.5C4 7.70435 4.31607 6.94129 4.87868 6.37868C5.44129 5.81607 6.20435 5.5 7 5.5H8.5V4.75C8.5 4.55109 8.57902 4.36032 8.71967 4.21967C8.86032 4.07902 9.05109 4 9.25 4V4ZM7 7C6.60218 7 6.22064 7.15804 5.93934 7.43934C5.65804 7.72064 5.5 8.10218 5.5 8.5V25C5.5 25.3978 5.65804 25.7794 5.93934 26.0607C6.22064 26.342 6.60218 26.5 7 26.5H25C25.3978 26.5 25.7794 26.342 26.0607 26.0607C26.342 25.7794 26.5 25.3978 26.5 25V8.5C26.5 8.10218 26.342 7.72064 26.0607 7.43934C25.7794 7.15804 25.3978 7 25 7H7Z" fill="white"/>
<path d="M7.75 10C7.75 9.80109 7.82902 9.61032 7.96967 9.46967C8.11032 9.32902 8.30109 9.25 8.5 9.25H23.5C23.6989 9.25 23.8897 9.32902 24.0303 9.46967C24.171 9.61032 24.25 9.80109 24.25 10V11.5C24.25 11.6989 24.171 11.8897 24.0303 12.0303C23.8897 12.171 23.6989 12.25 23.5 12.25H8.5C8.30109 12.25 8.11032 12.171 7.96967 12.0303C7.82902 11.8897 7.75 11.6989 7.75 11.5V10Z" fill="white"/>
</svg>
