<svg width="58" height="58" viewBox="0 0 58 58" fill="none" xmlns="http://www.w3.org/2000/svg">
<path d="M39.3458 29.5291C39.5145 29.6974 39.6485 29.8974 39.7398 30.1177C39.8312 30.3379 39.8782 30.5739 39.8782 30.8123C39.8782 31.0507 39.8312 31.2868 39.7398 31.507C39.6485 31.7272 39.5145 31.9272 39.3458 32.0956L28.4708 42.9706C28.3024 43.1394 28.1024 43.2733 27.8822 43.3647C27.662 43.456 27.4259 43.5031 27.1875 43.5031C26.9491 43.5031 26.713 43.456 26.4928 43.3647C26.2726 43.2733 26.0726 43.1394 25.9043 42.9706L20.4668 37.5331C20.2982 37.3646 20.1646 37.1645 20.0734 36.9443C19.9822 36.7241 19.9352 36.4881 19.9352 36.2498C19.9352 36.0115 19.9822 35.7755 20.0734 35.5553C20.1646 35.3352 20.2982 35.1351 20.4668 34.9666C20.8071 34.6262 21.2687 34.435 21.75 34.435C21.9883 34.435 22.2243 34.482 22.4445 34.5732C22.6647 34.6644 22.8647 34.7981 23.0333 34.9666L27.1875 39.1244L36.7793 29.5291C36.9476 29.3603 37.1476 29.2264 37.3678 29.135C37.588 29.0436 37.8241 28.9966 38.0625 28.9966C38.3009 28.9966 38.537 29.0436 38.7572 29.135C38.9774 29.2264 39.1774 29.3603 39.3458 29.5291Z" fill="white"/>
<path d="M12.6875 0C13.1682 0 13.6292 0.190959 13.9691 0.530869C14.309 0.870779 14.5 1.3318 14.5 1.8125V3.625H43.5V1.8125C43.5 1.3318 43.691 0.870779 44.0309 0.530869C44.3708 0.190959 44.8318 0 45.3125 0C45.7932 0 46.2542 0.190959 46.5941 0.530869C46.934 0.870779 47.125 1.3318 47.125 1.8125V3.625H50.75C52.6728 3.625 54.5169 4.38884 55.8765 5.74848C57.2362 7.10811 58 8.95218 58 10.875V50.75C58 52.6728 57.2362 54.5169 55.8765 55.8765C54.5169 57.2362 52.6728 58 50.75 58H7.25C5.32718 58 3.48311 57.2362 2.12348 55.8765C0.763837 54.5169 0 52.6728 0 50.75V10.875C0 8.95218 0.763837 7.10811 2.12348 5.74848C3.48311 4.38884 5.32718 3.625 7.25 3.625H10.875V1.8125C10.875 1.3318 11.066 0.870779 11.4059 0.530869C11.7458 0.190959 12.2068 0 12.6875 0V0ZM7.25 7.25C6.28859 7.25 5.36656 7.63192 4.68674 8.31174C4.00692 8.99156 3.625 9.91359 3.625 10.875V50.75C3.625 51.7114 4.00692 52.6334 4.68674 53.3133C5.36656 53.9931 6.28859 54.375 7.25 54.375H50.75C51.7114 54.375 52.6334 53.9931 53.3133 53.3133C53.9931 52.6334 54.375 51.7114 54.375 50.75V10.875C54.375 9.91359 53.9931 8.99156 53.3133 8.31174C52.6334 7.63192 51.7114 7.25 50.75 7.25H7.25Z" fill="white"/>
<path d="M9.0625 14.5C9.0625 14.0193 9.25346 13.5583 9.59337 13.2184C9.93328 12.8785 10.3943 12.6875 10.875 12.6875H47.125C47.6057 12.6875 48.0667 12.8785 48.4066 13.2184C48.7465 13.5583 48.9375 14.0193 48.9375 14.5V18.125C48.9375 18.6057 48.7465 19.0667 48.4066 19.4066C48.0667 19.7465 47.6057 19.9375 47.125 19.9375H10.875C10.3943 19.9375 9.93328 19.7465 9.59337 19.4066C9.25346 19.0667 9.0625 18.6057 9.0625 18.125V14.5Z" fill="white"/>
</svg>
