<svg width="58" height="58" viewBox="0 0 58 58" fill="none" xmlns="http://www.w3.org/2000/svg">
<path d="M50.75 7.25H33.8333C32.044 7.25606 30.321 7.92803 29 9.135C27.679 7.92803 25.956 7.25606 24.1667 7.25H7.24999C6.60906 7.25 5.99437 7.50461 5.54115 7.95783C5.08794 8.41104 4.83333 9.02573 4.83333 9.66667V45.9167C4.83333 46.5576 5.08794 47.1723 5.54115 47.6255C5.99437 48.0787 6.60906 48.3333 7.24999 48.3333H21.1652C22.4363 48.3333 23.6833 48.8505 24.5823 49.7495L27.2914 52.4586C27.3132 52.4803 27.3422 52.4876 27.3639 52.5093C27.5717 52.7002 27.8037 52.8694 28.0744 52.983H28.0792C28.6688 53.2271 29.3312 53.2271 29.9207 52.983H29.9256C30.1962 52.8694 30.4282 52.7002 30.6361 52.5093C30.6578 52.4876 30.6868 52.4803 30.7086 52.4586L33.4177 49.7495C34.3261 48.8464 35.5538 48.3376 36.8348 48.3333H50.75C51.3909 48.3333 52.0056 48.0787 52.4588 47.6255C52.9121 47.1723 53.1667 46.5576 53.1667 45.9167V9.66667C53.1667 9.02573 52.9121 8.41104 52.4588 7.95783C52.0056 7.50461 51.3909 7.25 50.75 7.25ZM21.1652 43.5H9.66666V12.0833H24.1667C25.5007 12.0833 26.5833 13.1684 26.5833 14.5V45.1651C24.9822 44.0854 23.0963 43.5058 21.1652 43.5ZM48.3333 43.5H36.8348C34.9039 43.5 33.0068 44.0945 31.4167 45.1651V14.5C31.4167 13.1684 32.4993 12.0833 33.8333 12.0833H48.3333V43.5Z" fill="white"/>
</svg>
