<svg width="32" height="32" viewBox="0 0 32 32" fill="none" xmlns="http://www.w3.org/2000/svg">
<rect width="32" height="32" rx="4" fill="#FFB72B"/>
<path d="M11 21.0129L15.413 20.9979L25.045 11.4579C25.423 11.0799 25.631 10.5779 25.631 10.0439C25.631 9.5099 25.423 9.0079 25.045 8.6299L23.459 7.0439C22.703 6.2879 21.384 6.2919 20.634 7.0409L11 16.5829V21.0129ZM22.045 8.4579L23.634 10.0409L22.037 11.6229L20.451 10.0379L22.045 8.4579ZM13 17.4169L19.03 11.4439L20.616 13.0299L14.587 19.0009L13 19.0059V17.4169Z" fill="white"/>
<path d="M9 25H23C24.103 25 25 24.103 25 23V14.332L23 16.332V23H12.158C12.132 23 12.105 23.01 12.079 23.01C12.046 23.01 12.013 23.001 11.979 23H9V9H15.847L17.847 7H9C7.897 7 7 7.897 7 9V23C7 24.103 7.897 25 9 25Z" fill="white"/>
</svg>
