<svg width="32" height="32" viewBox="0 0 32 32" fill="none" xmlns="http://www.w3.org/2000/svg">
<rect width="32" height="32" rx="4" fill="#4D77FF"/>
<path d="M13.2813 16C13.2813 16.6962 13.5578 17.3639 14.0501 17.8562C14.5424 18.3484 15.2101 18.625 15.9063 18.625C16.6025 18.625 17.2701 18.3484 17.7624 17.8562C18.2547 17.3639 18.5313 16.6962 18.5313 16C18.5313 15.3038 18.2547 14.6361 17.7624 14.1438C17.2701 13.6516 16.6025 13.375 15.9063 13.375C15.2101 13.375 14.5424 13.6516 14.0501 14.1438C13.5578 14.6361 13.2813 15.3038 13.2813 16ZM26.0828 15.3953C23.861 10.7148 20.5024 8.35938 16 8.35938C11.4953 8.35938 8.13908 10.7148 5.9172 15.3977C5.82808 15.5864 5.78186 15.7925 5.78186 16.0012C5.78186 16.2099 5.82808 16.416 5.9172 16.6047C8.13908 21.2852 11.4977 23.6406 16 23.6406C20.5047 23.6406 23.861 21.2852 26.0828 16.6023C26.2633 16.2227 26.2633 15.782 26.0828 15.3953ZM15.9063 20.125C13.6281 20.125 11.7813 18.2781 11.7813 16C11.7813 13.7219 13.6281 11.875 15.9063 11.875C18.1844 11.875 20.0313 13.7219 20.0313 16C20.0313 18.2781 18.1844 20.125 15.9063 20.125Z" fill="white"/>
</svg>
