<svg width="21" height="18" viewBox="0 0 21 18" fill="none" xmlns="http://www.w3.org/2000/svg">
<path d="M6.75 0C6.15326 0 5.58097 0.237053 5.15901 0.65901C4.73705 1.08097 4.5 1.65326 4.5 2.25V3H3C2.20435 3 1.44129 3.31607 0.87868 3.87868C0.316071 4.44129 0 5.20435 0 6V12.75C0 13.3467 0.237053 13.919 0.65901 14.341C1.08097 14.7629 1.65326 15 2.25 15H4.5V15.75C4.5 16.3467 4.73705 16.919 5.15901 17.341C5.58097 17.7629 6.15326 18 6.75 18H14.4C14.9967 18 15.569 17.7629 15.991 17.341C16.4129 16.919 16.65 16.3467 16.65 15.75V15H18.75C19.3467 15 19.919 14.7629 20.341 14.341C20.7629 13.919 21 13.3467 21 12.75V6C21 5.20435 20.6839 4.44129 20.1213 3.87868C19.5587 3.31607 18.7956 3 18 3H16.5V2.25C16.5 1.65326 16.2629 1.08097 15.841 0.65901C15.419 0.237053 14.8467 0 14.25 0H6.75ZM15 3H6V2.25C6 2.05109 6.07902 1.86032 6.21967 1.71967C6.36032 1.57902 6.55109 1.5 6.75 1.5H14.25C14.4489 1.5 14.6397 1.57902 14.7803 1.71967C14.921 1.86032 15 2.05109 15 2.25V3ZM6.75 12H14.4C14.5989 12 14.7897 12.079 14.9303 12.2197C15.071 12.3603 15.15 12.5511 15.15 12.75V15.75C15.15 15.9489 15.071 16.1397 14.9303 16.2803C14.7897 16.421 14.5989 16.5 14.4 16.5H6.75C6.55109 16.5 6.36032 16.421 6.21967 16.2803C6.07902 16.1397 6 15.9489 6 15.75V12.75C6 12.5511 6.07902 12.3603 6.21967 12.2197C6.36032 12.079 6.55109 12 6.75 12Z" fill="#4D77FF"/>
</svg>
