<svg width="47" height="44" viewBox="0 0 47 44" fill="none" xmlns="http://www.w3.org/2000/svg">
<path d="M32.7165 37.504L31.4365 27.256C31.2551 25.8044 30.5496 24.4692 29.4528 23.5012C28.356 22.5333 26.9433 21.9994 25.4805 22H21.0725C19.6103 22.0004 18.1986 22.5347 17.1026 23.5026C16.0066 24.4704 15.3018 25.8051 15.1205 27.256L13.8385 37.504C13.7681 38.067 13.8183 38.6386 13.9858 39.1807C14.1533 39.7228 14.4342 40.2231 14.8099 40.6483C15.1855 41.0736 15.6474 41.414 16.1647 41.6471C16.6821 41.8801 17.2431 42.0004 17.8105 42H28.7465C29.3137 42.0001 29.8745 41.8796 30.3916 41.6464C30.9087 41.4133 31.3703 41.0728 31.7457 40.6476C32.1212 40.2224 32.4019 39.7222 32.5693 39.1802C32.7366 38.6382 32.7868 38.0669 32.7165 37.504V37.504Z" stroke="white" stroke-width="4" stroke-linecap="round" stroke-linejoin="round"/>
<path d="M23.2785 14C26.5922 14 29.2785 11.3137 29.2785 8C29.2785 4.68629 26.5922 2 23.2785 2C19.9648 2 17.2785 4.68629 17.2785 8C17.2785 11.3137 19.9648 14 23.2785 14Z" stroke="white" stroke-width="4"/>
<path d="M7.27847 20C9.48761 20 11.2785 18.2091 11.2785 16C11.2785 13.7909 9.48761 12 7.27847 12C5.06933 12 3.27847 13.7909 3.27847 16C3.27847 18.2091 5.06933 20 7.27847 20Z" stroke="white" stroke-width="4"/>
<path d="M39.2784 20C41.4876 20 43.2784 18.2091 43.2784 16C43.2784 13.7909 41.4876 12 39.2784 12C37.0693 12 35.2784 13.7909 35.2784 16C35.2784 18.2091 37.0693 20 39.2784 20Z" stroke="white" stroke-width="4"/>
<path d="M39.2785 26H39.8905C40.8374 25.9999 41.7536 26.3357 42.4761 26.9476C43.1987 27.5596 43.6807 28.408 43.8365 29.342L44.5025 33.342C44.5981 33.9151 44.5676 34.5021 44.4134 35.0623C44.2591 35.6224 43.9846 36.1422 43.609 36.5855C43.2335 37.0288 42.7659 37.385 42.2387 37.6293C41.7115 37.8736 41.1375 38.0001 40.5565 38H33.2785M7.27849 26H6.66649C5.71962 25.9999 4.8034 26.3357 4.08084 26.9476C3.35829 27.5596 2.87625 28.408 2.72049 29.342L2.05449 33.342C1.95892 33.9151 1.98933 34.5021 2.14363 35.0623C2.29793 35.6224 2.57239 36.1422 2.94795 36.5855C3.3235 37.0288 3.79112 37.385 4.31828 37.6293C4.84544 37.8736 5.41949 38.0001 6.00049 38H13.2785L7.27849 26Z" stroke="white" stroke-width="4" stroke-linecap="round" stroke-linejoin="round"/>
</svg>
