<svg width="39" height="44" viewBox="0 0 39 44" fill="none" xmlns="http://www.w3.org/2000/svg">
<path d="M19.4689 22C24.9917 22 29.4689 17.5228 29.4689 12C29.4689 6.47715 24.9917 2 19.4689 2C13.946 2 9.46887 6.47715 9.46887 12C9.46887 17.5228 13.946 22 19.4689 22Z" stroke="white" stroke-width="4"/>
<path d="M29.4689 26H30.1729C31.635 26.0004 33.0467 26.5347 34.1427 27.5026C35.2387 28.4704 35.9436 29.8051 36.1249 31.256L36.9069 37.504C36.9772 38.0669 36.927 38.6382 36.7597 39.1802C36.5923 39.7222 36.3116 40.2224 35.9361 40.6476C35.5607 41.0728 35.0991 41.4133 34.582 41.6464C34.0649 41.8796 33.5041 42.0001 32.9369 42H6.00087C5.43364 42.0001 4.87286 41.8796 4.35576 41.6464C3.83867 41.4133 3.37707 41.0728 3.00162 40.6476C2.62617 40.2224 2.34545 39.7222 2.17808 39.1802C2.01071 38.6382 1.96053 38.0669 2.03087 37.504L2.81087 31.256C2.99226 29.8044 3.6977 28.4692 4.79454 27.5012C5.89137 26.5333 7.30403 25.9994 8.76687 26H9.46887" stroke="white" stroke-width="4" stroke-linecap="round" stroke-linejoin="round"/>
</svg>
