<svg width="34" height="40" viewBox="0 0 34 40" fill="none" xmlns="http://www.w3.org/2000/svg">
<path d="M23.3403 19.9983C23.3403 20.4405 23.1647 20.8645 22.852 21.1772C22.5394 21.4899 22.1153 21.6655 21.6732 21.6655C21.231 21.6655 20.807 21.4899 20.4943 21.1772C20.1817 20.8645 20.006 20.4405 20.006 19.9983C20.006 19.5562 20.1817 19.1321 20.4943 18.8195C20.807 18.5068 21.231 18.3312 21.6732 18.3312C22.1153 18.3312 22.5394 18.5068 22.852 18.8195C23.1647 19.1321 23.3403 19.5562 23.3403 19.9983ZM15.3313 0.0323365C15.0895 -0.0159892 14.84 -0.0100858 14.6008 0.0496207C14.3616 0.109327 14.1386 0.221351 13.9479 0.37762C13.7571 0.53389 13.6035 0.730514 13.4979 0.953329C13.3923 1.17614 13.3375 1.4196 13.3373 1.66616V38.3338C13.3375 38.5804 13.3923 38.8239 13.4979 39.0467C13.6035 39.2695 13.7571 39.4661 13.9479 39.6224C14.1386 39.7786 14.3616 39.8907 14.6008 39.9504C14.84 40.0101 15.0895 40.016 15.3313 39.9677L32.0029 36.6333C32.3807 36.5578 32.7207 36.3538 32.9651 36.0559C33.2095 35.7581 33.3431 35.3848 33.3433 34.9995V5.00049C33.3431 4.61523 33.2095 4.24193 32.9651 3.94407C32.7207 3.64621 32.3807 3.44218 32.0029 3.36667L15.3313 0.0323365ZM16.6717 36.2999V3.7001L30.009 6.36757V33.6324L16.6717 36.2999ZM10.003 36.6667V33.3323H3.33433V6.66766H10.003V3.33333H1.66717C1.22501 3.33333 0.800957 3.50898 0.488302 3.82163C0.175648 4.13428 0 4.55833 0 5.00049V34.9995C0 35.4417 0.175648 35.8657 0.488302 36.1784C0.800957 36.491 1.22501 36.6667 1.66717 36.6667H10.003Z" fill="white"/>
</svg>
