<svg width="217" height="35" viewBox="0 0 217 35" fill="none" xmlns="http://www.w3.org/2000/svg">
<path d="M30.508 10.312C33.42 10.312 35.73 11.194 37.438 12.958C39.174 14.722 40.042 17.172 40.042 20.308V34H32.902V21.274C32.902 19.762 32.496 18.6 31.684 17.788C30.9 16.948 29.808 16.528 28.408 16.528C27.008 16.528 25.902 16.948 25.09 17.788C24.306 18.6 23.914 19.762 23.914 21.274V34H16.774V21.274C16.774 19.762 16.368 18.6 15.556 17.788C14.772 16.948 13.68 16.528 12.28 16.528C10.88 16.528 9.774 16.948 8.962 17.788C8.178 18.6 7.786 19.762 7.786 21.274V34H0.604V10.564H7.786V13.504C8.514 12.524 9.466 11.754 10.642 11.194C11.818 10.606 13.148 10.312 14.632 10.312C16.396 10.312 17.964 10.69 19.336 11.446C20.736 12.202 21.828 13.28 22.612 14.68C23.424 13.392 24.53 12.342 25.93 11.53C27.33 10.718 28.856 10.312 30.508 10.312ZM55.7329 34.336C53.4369 34.336 51.3649 33.846 49.5169 32.866C47.6969 31.886 46.2549 30.486 45.1909 28.666C44.1549 26.846 43.6369 24.718 43.6369 22.282C43.6369 19.874 44.1689 17.76 45.2329 15.94C46.2969 14.092 47.7529 12.678 49.6009 11.698C51.4489 10.718 53.5209 10.228 55.8169 10.228C58.1129 10.228 60.1849 10.718 62.0329 11.698C63.8809 12.678 65.3369 14.092 66.4009 15.94C67.4649 17.76 67.9969 19.874 67.9969 22.282C67.9969 24.69 67.4509 26.818 66.3589 28.666C65.2949 30.486 63.8249 31.886 61.9489 32.866C60.1009 33.846 58.0289 34.336 55.7329 34.336ZM55.7329 28.12C57.1049 28.12 58.2669 27.616 59.2189 26.608C60.1989 25.6 60.6889 24.158 60.6889 22.282C60.6889 20.406 60.2129 18.964 59.2609 17.956C58.3369 16.948 57.1889 16.444 55.8169 16.444C54.4169 16.444 53.2549 16.948 52.3309 17.956C51.4069 18.936 50.9449 20.378 50.9449 22.282C50.9449 24.158 51.3929 25.6 52.2889 26.608C53.2129 27.616 54.3609 28.12 55.7329 28.12ZM82.3491 27.28L87.4311 10.564H95.0751L86.7591 34H77.8971L69.5811 10.564H77.2671L82.3491 27.28ZM101.71 8.128C100.45 8.128 99.4141 7.764 98.6021 7.036C97.8181 6.28 97.4261 5.356 97.4261 4.264C97.4261 3.144 97.8181 2.22 98.6021 1.492C99.4141 0.735998 100.45 0.357998 101.71 0.357998C102.942 0.357998 103.95 0.735998 104.734 1.492C105.546 2.22 105.952 3.144 105.952 4.264C105.952 5.356 105.546 6.28 104.734 7.036C103.95 7.764 102.942 8.128 101.71 8.128ZM105.28 10.564V34H98.0981V10.564H105.28ZM132.577 21.904C132.577 22.576 132.535 23.276 132.451 24.004H116.197C116.309 25.46 116.771 26.58 117.583 27.364C118.423 28.12 119.445 28.498 120.649 28.498C122.441 28.498 123.687 27.742 124.387 26.23H132.031C131.639 27.77 130.925 29.156 129.889 30.388C128.881 31.62 127.607 32.586 126.067 33.286C124.527 33.986 122.805 34.336 120.901 34.336C118.605 34.336 116.561 33.846 114.769 32.866C112.977 31.886 111.577 30.486 110.569 28.666C109.561 26.846 109.057 24.718 109.057 22.282C109.057 19.846 109.547 17.718 110.527 15.898C111.535 14.078 112.935 12.678 114.727 11.698C116.519 10.718 118.577 10.228 120.901 10.228C123.169 10.228 125.185 10.704 126.949 11.656C128.713 12.608 130.085 13.966 131.065 15.73C132.073 17.494 132.577 19.552 132.577 21.904ZM125.227 20.014C125.227 18.782 124.807 17.802 123.967 17.074C123.127 16.346 122.077 15.982 120.817 15.982C119.613 15.982 118.591 16.332 117.751 17.032C116.939 17.732 116.435 18.726 116.239 20.014H125.227ZM143.548 28.456H152.956V34H136.366V4.516H143.548V28.456ZM159.993 8.128C158.733 8.128 157.697 7.764 156.885 7.036C156.101 6.28 155.709 5.356 155.709 4.264C155.709 3.144 156.101 2.22 156.885 1.492C157.697 0.735998 158.733 0.357998 159.993 0.357998C161.225 0.357998 162.233 0.735998 163.017 1.492C163.829 2.22 164.235 3.144 164.235 4.264C164.235 5.356 163.829 6.28 163.017 7.036C162.233 7.764 161.225 8.128 159.993 8.128ZM163.563 10.564V34H156.381V10.564H163.563ZM178.302 34.336C176.258 34.336 174.438 33.986 172.842 33.286C171.246 32.586 169.986 31.634 169.062 30.43C168.138 29.198 167.62 27.826 167.508 26.314H174.606C174.69 27.126 175.068 27.784 175.74 28.288C176.412 28.792 177.238 29.044 178.218 29.044C179.114 29.044 179.8 28.876 180.276 28.54C180.78 28.176 181.032 27.714 181.032 27.154C181.032 26.482 180.682 25.992 179.982 25.684C179.282 25.348 178.148 24.984 176.58 24.592C174.9 24.2 173.5 23.794 172.38 23.374C171.26 22.926 170.294 22.24 169.482 21.316C168.67 20.364 168.264 19.09 168.264 17.494C168.264 16.15 168.628 14.932 169.356 13.84C170.112 12.72 171.204 11.838 172.632 11.194C174.088 10.55 175.81 10.228 177.798 10.228C180.738 10.228 183.048 10.956 184.728 12.412C186.436 13.868 187.416 15.8 187.668 18.208H181.032C180.92 17.396 180.556 16.752 179.94 16.276C179.352 15.8 178.568 15.562 177.588 15.562C176.748 15.562 176.104 15.73 175.656 16.066C175.208 16.374 174.984 16.808 174.984 17.368C174.984 18.04 175.334 18.544 176.034 18.88C176.762 19.216 177.882 19.552 179.394 19.888C181.13 20.336 182.544 20.784 183.636 21.232C184.728 21.652 185.68 22.352 186.492 23.332C187.332 24.284 187.766 25.572 187.794 27.196C187.794 28.568 187.402 29.8 186.618 30.892C185.862 31.956 184.756 32.796 183.3 33.412C181.872 34.028 180.206 34.336 178.302 34.336ZM205.25 27.91V34H201.596C198.992 34 196.962 33.37 195.506 32.11C194.05 30.822 193.322 28.736 193.322 25.852V16.528H190.466V10.564H193.322V4.852H200.504V10.564H205.208V16.528H200.504V25.936C200.504 26.636 200.672 27.14 201.008 27.448C201.344 27.756 201.904 27.91 202.688 27.91H205.25ZM212.61 34.336C211.35 34.336 210.314 33.972 209.502 33.244C208.718 32.488 208.326 31.564 208.326 30.472C208.326 29.352 208.718 28.414 209.502 27.658C210.314 26.902 211.35 26.524 212.61 26.524C213.842 26.524 214.85 26.902 215.634 27.658C216.446 28.414 216.852 29.352 216.852 30.472C216.852 31.564 216.446 32.488 215.634 33.244C214.85 33.972 213.842 34.336 212.61 34.336Z" fill="#0C145A"/>
</svg>
