<svg width="32" height="32" viewBox="0 0 32 32" fill="none" xmlns="http://www.w3.org/2000/svg">
<rect width="32" height="32" rx="4" fill="#4D77FF"/>
<path d="M12.6667 7.66663V9.33329M18.5 7.66663V9.33329M7.66669 12.6666H23.5M21.4167 19.0358L20.1667 20.2858M13.5 22.6666C10.1667 22.6666 11 22.6666 11 22.6666C10.116 22.6666 9.26812 22.3154 8.643 21.6903C8.01788 21.0652 7.66669 20.2173 7.66669 19.3333V11.8333C7.66669 10.9492 8.01788 10.1014 8.643 9.47627C9.26812 8.85115 10.116 8.49996 11 8.49996H20.1667C21.0507 8.49996 21.8986 8.85115 22.5237 9.47627C23.1488 10.1014 23.5 10.9492 23.5 11.8333V16.8333C23.5 16.8333 20.1667 15.1666 17.6667 16.8333C15.1667 18.5 16.8334 22.6666 13.5 22.6666Z" stroke="white" stroke-width="2" stroke-linecap="round" stroke-linejoin="round"/>
<path d="M20.1667 24.3333C22.4679 24.3333 24.3333 22.4679 24.3333 20.1667C24.3333 17.8655 22.4679 16 20.1667 16C17.8655 16 16 17.8655 16 20.1667C16 22.4679 17.8655 24.3333 20.1667 24.3333Z" stroke="white" stroke-width="2" stroke-linecap="round" stroke-linejoin="round"/>
</svg>
