<svg width="27" height="26" viewBox="0 0 27 26" fill="none" xmlns="http://www.w3.org/2000/svg">
<path d="M25.6118 8.90001L17.6775 7.74689L14.1306 0.556262C14.0337 0.359387 13.8743 0.200012 13.6775 0.103137C13.1837 -0.140613 12.5837 0.0625116 12.3368 0.556262L8.78995 7.74689L0.855576 8.90001C0.636826 8.93126 0.436826 9.03439 0.283701 9.19064C0.0985815 9.38091 -0.00342784 9.63689 8.7956e-05 9.90233C0.00360375 10.1678 0.112357 10.421 0.302451 10.6063L6.04308 16.2031L4.68683 24.1063C4.65502 24.2901 4.67537 24.4792 4.74555 24.6521C4.81574 24.8249 4.93296 24.9747 5.08392 25.0843C5.23488 25.194 5.41354 25.2591 5.59964 25.2724C5.78574 25.2856 5.97184 25.2465 6.13683 25.1594L13.2337 21.4281L20.3306 25.1594C20.5243 25.2625 20.7493 25.2969 20.965 25.2594C21.5087 25.1656 21.8743 24.65 21.7806 24.1063L20.4243 16.2031L26.165 10.6063C26.3212 10.4531 26.4243 10.2531 26.4556 10.0344C26.54 9.48751 26.1587 8.98126 25.6118 8.90001V8.90001Z" fill="#FDD015"/>
</svg>
